<svg width="25" height="30" viewBox="0 0 25 30" fill="none" xmlns="http://www.w3.org/2000/svg">
<path d="M20.3463 15.923C20.3761 13.6116 21.6174 11.4245 23.5866 10.2139C22.3443 8.43972 20.2635 7.31483 18.0987 7.2471C15.7898 7.00474 13.5513 8.62874 12.3747 8.62874C11.1754 8.62874 9.36381 7.27116 7.41305 7.3113C4.87033 7.39345 2.49988 8.8391 1.26279 11.0621C-1.39646 15.6662 0.5871 22.4326 3.13444 26.1542C4.40893 27.9766 5.89844 30.0122 7.84743 29.94C9.75464 29.8609 10.4669 28.7239 12.7691 28.7239C15.0499 28.7239 15.7182 29.94 17.7067 29.8941C19.7533 29.8609 21.0427 28.0637 22.2724 26.2241C23.1882 24.9256 23.8928 23.4904 24.3603 21.9719C21.9552 20.9546 20.3491 18.5343 20.3463 15.923Z" fill="white"/>
<path d="M16.5903 4.7996C17.7061 3.46007 18.2559 1.73832 18.1227 0C16.418 0.179053 14.8432 0.993822 13.7123 2.28196C12.6064 3.54054 12.0309 5.232 12.1397 6.90387C13.8451 6.92143 15.5216 6.12875 16.5903 4.7996Z" fill="white"/>
</svg>
